<svg width="640" height="480" xmlns="http://www.w3.org/2000/svg" xmlns:xlink="http://www.w3.org/1999/xlink"><defs><linearGradient id="j"><stop stop-color="#ff0" offset="0"/><stop stop-color="#ff0" stop-opacity="0" offset="1"/></linearGradient><linearGradient id="b"><stop stop-color="#ffc400" offset="0"/><stop stop-color="#ffac00" stop-opacity="0" offset="1"/></linearGradient><linearGradient id="a"><stop stop-color="#ff9400" offset="0"/><stop stop-color="#ff8900" stop-opacity="0" offset="1"/></linearGradient><radialGradient gradientUnits="userSpaceOnUse" gradientTransform="matrix(.991 -.131 .131 .991 295.327 168.173)" r="249.352" fy="365.219" fx="14.286" cy="365.219" cx="14.286" xlink:href="#a"/><radialGradient gradientUnits="userSpaceOnUse" r="136.071" fy="554.862" fx="355.357" cy="554.862" cx="355.357" xlink:href="#a"/><linearGradient gradientUnits="userSpaceOnUse" y2="554.862" x2="497.534" y1="554.862" x1="213.18" xlink:href="#b"/><radialGradient gradientUnits="userSpaceOnUse" r="136.071" fy="554.862" fx="355.357" cy="554.862" cx="355.357" xlink:href="#c"/><linearGradient id="c"><stop stop-color="#ff9400" offset="0"/><stop stop-color="#ff8900" stop-opacity="0" offset="1"/></linearGradient><linearGradient gradientUnits="userSpaceOnUse" y2="554.862" x2="497.534" y1="554.862" x1="213.18" xlink:href="#d"/><linearGradient id="d"><stop stop-color="#fff600" offset="0"/><stop stop-color="#ffac00" stop-opacity="0" offset="1"/></linearGradient><radialGradient xlink:href="#c" gradientUnits="userSpaceOnUse" cx="355.357" cy="554.862" fx="355.357" fy="554.862" r="136.071"/><linearGradient xlink:href="#d" gradientUnits="userSpaceOnUse" x1="213.18" y1="554.862" x2="497.534" y2="554.862"/><radialGradient gradientUnits="userSpaceOnUse" gradientTransform="translate(342.875 163.161)" r="249.352" fy="365.219" fx="14.286" cy="365.219" cx="14.286" xlink:href="#e"/><linearGradient id="e"><stop stop-color="#ff9400" offset="0"/><stop stop-color="#ff8900" stop-opacity="0" offset="1"/></linearGradient><radialGradient xlink:href="#e" gradientUnits="userSpaceOnUse" gradientTransform="matrix(.707 -.707 .707 .707 88.927 280.135)" cx="14.286" cy="365.219" fx="14.286" fy="365.219" r="249.352"/><radialGradient xlink:href="#f" gradientUnits="userSpaceOnUse" cx="355.357" cy="554.862" fx="355.357" fy="554.862" r="136.071"/><linearGradient id="f"><stop stop-color="#ff9400" offset="0"/><stop stop-color="#ff8900" stop-opacity="0" offset="1"/></linearGradient><linearGradient xlink:href="#g" gradientUnits="userSpaceOnUse" x1="213.18" y1="554.862" x2="497.534" y2="554.862"/><linearGradient id="g"><stop stop-color="#fff600" offset="0"/><stop stop-color="#ffac00" stop-opacity="0" offset="1"/></linearGradient><radialGradient gradientUnits="userSpaceOnUse" r="136.071" fy="554.862" fx="355.357" cy="554.862" cx="355.357" xlink:href="#h"/><linearGradient id="h"><stop stop-color="#ff9400" offset="0"/><stop stop-color="#ff8900" stop-opacity="0" offset="1"/></linearGradient><linearGradient gradientUnits="userSpaceOnUse" y2="554.862" x2="497.534" y1="554.862" x1="213.18" xlink:href="#i"/><linearGradient id="i"><stop stop-color="#ffc400" offset="0"/><stop stop-color="#ffac00" stop-opacity="0" offset="1"/></linearGradient><radialGradient gradientUnits="userSpaceOnUse" r="141.708" fy="554.862" fx="355.357" cy="554.862" cx="355.357" xlink:href="#j"/><radialGradient r="249.352" fy="365.219" fx="14.286" cy="365.219" cx="14.286" gradientTransform="matrix(.991 -.131 .131 .991 295.327 168.173)" gradientUnits="userSpaceOnUse" xlink:href="#a"/><radialGradient r="249.352" fy="365.219" fx="14.286" cy="365.219" cx="14.286" gradientTransform="matrix(.707 -.707 .707 .707 88.927 280.135)" gradientUnits="userSpaceOnUse" xlink:href="#e"/><radialGradient r="136.071" fy="554.862" fx="355.357" cy="554.862" cx="355.357" gradientUnits="userSpaceOnUse" xlink:href="#c"/><linearGradient y2="554.862" x2="497.534" y1="554.862" x1="213.18" gradientUnits="userSpaceOnUse" xlink:href="#d"/><radialGradient r="136.071" fy="554.862" fx="355.357" cy="554.862" cx="355.357" gradientUnits="userSpaceOnUse" xlink:href="#a"/><linearGradient y2="554.862" x2="497.534" y1="554.862" x1="213.18" gradientUnits="userSpaceOnUse" xlink:href="#b"/><radialGradient r="249.352" fy="365.219" fx="14.286" cy="365.219" cx="14.286" gradientTransform="matrix(.707 -.707 .707 .707 88.927 280.135)" gradientUnits="userSpaceOnUse" xlink:href="#e"/><radialGradient r="249.352" fy="365.219" fx="14.286" cy="365.219" cx="14.286" gradientTransform="matrix(.991 -.131 .131 .991 295.327 168.173)" gradientUnits="userSpaceOnUse" xlink:href="#a"/><radialGradient r="141.708" fy="554.862" fx="355.357" cy="554.862" cx="355.357" gradientUnits="userSpaceOnUse" xlink:href="#j"/><radialGradient r="249.352" fy="365.219" fx="14.286" cy="365.219" cx="14.286" gradientTransform="matrix(.991 -.131 .131 .991 295.327 168.173)" gradientUnits="userSpaceOnUse" xlink:href="#a"/><radialGradient r="249.352" fy="365.219" fx="14.286" cy="365.219" cx="14.286" gradientTransform="matrix(.707 -.707 .707 .707 88.927 280.135)" gradientUnits="userSpaceOnUse" xlink:href="#e"/><radialGradient r="136.071" fy="554.862" fx="355.357" cy="554.862" cx="355.357" gradientUnits="userSpaceOnUse" xlink:href="#c"/><linearGradient y2="554.862" x2="497.534" y1="554.862" x1="213.18" gradientUnits="userSpaceOnUse" xlink:href="#d"/><radialGradient r="136.071" fy="554.862" fx="355.357" cy="554.862" cx="355.357" gradientUnits="userSpaceOnUse" xlink:href="#a"/><linearGradient y2="554.862" x2="497.534" y1="554.862" x1="213.18" gradientUnits="userSpaceOnUse" xlink:href="#b"/><radialGradient gradientUnits="userSpaceOnUse" gradientTransform="matrix(1 0 0 .344 0 393.566)" r="51.997" fy="600.26" fx="357.144" cy="600.26" cx="357.144" xlink:href="#c"/></defs><g stroke="#000"><path d="M441.181 204.486c-29.26.196-57.457 9.342-86.177 12.999-11.987 1.526-24.341 1.901-36.348.481-15.964-1.887-31.42-6.901-47.373-9.147-14.257-2.008-28.693-4.104-43.04-4.188-25.072-.148-49.321 7.702-73.9 11.94 0 7.19-1.46 16.419 2.215 21.472 3.79 5.212 10.185 9.979 11.843 17.043 3.933 16.751 9.518 33.172 16.658 48.914 3.47 7.65 10.019 12.984 17.332 16.658 17.61 8.847 38.453 10.148 57.772 7.366 27.512-3.962 42.437-24.605 53.825-48.192 4.262-9.588 4.738-20.653 10.351-29.416 3.334-5.205 11.076-3.014 16.609-3.033 8.241-.028 10.223 9.184 11.94 15.31 6.077 21.679 16.21 44.68 36.349 56.039 30.073 16.963 77.45 13.79 96.961-16.802 7.636-11.973 9.745-26.5 13.576-40.055 2.332-8.252 4.416-18.091 12.71-22.628 3.347-1.831.998-9.137 1.492-13.384.538-4.628 1.576-8.72-5.007-9.629-11.483-1.586-22.622-6.408-34.375-8.04-11.137-1.547-22.049-3.783-33.412-3.707zm-193.441 7.703c8.306-.053 16.576.555 24.65 2.263 48.1 10.174 49.073 29.992 29.271 70.964-16.136 33.386-49.56 41.751-83.24 33.749-15.526-3.689-26.142-14.526-31.149-29.368-5.284-15.664-9.282-32.306-8.377-48.769 1.212-22.046 26.148-25.145 44.003-27.153 8.193-.922 16.536-1.632 24.842-1.685zm175.628 0c8.306.053 16.649.763 24.842 1.685 17.855 2.008 42.792 5.107 44.003 27.153.905 16.463-3.092 33.106-8.377 48.769-5.007 14.841-15.624 25.679-31.149 29.368-33.68 8.002-67.105-.363-83.24-33.749-19.802-40.972-18.829-60.789 29.271-70.964 8.073-1.708 16.344-2.316 24.65-2.263z"/><path opacity=".85" d="M222.892 213.891c16.386-1.843 33.343-2.84 49.489.575 48.101 10.174 49.071 29.994 29.269 70.966-16.136 33.386-49.543 41.753-83.223 33.751-15.525-3.689-26.148-14.565-31.155-29.406-5.285-15.664-9.304-32.297-8.399-48.76 1.212-22.046 26.164-25.117 44.019-27.126z"/><path opacity=".85" d="M448.201 213.891c-16.386-1.843-33.343-2.84-49.489.575-48.101 10.174-49.071 29.994-29.269 70.966 16.136 33.386 49.543 41.753 83.223 33.751 15.526-3.689 26.148-14.565 31.155-29.406 5.284-15.664 9.304-32.297 8.399-48.76-1.212-22.046-26.164-25.117-44.019-27.126z"/></g><title>Layer 1</title></svg>